<svg width="35" height="35" viewBox="0 0 35 35" fill="none" xmlns="http://www.w3.org/2000/svg">
<path d="M2.83331 8.74273C2.83331 7.94065 3.48373 7.29169 4.28435 7.29169L15.9656 7.29169C16.3504 7.29169 16.7195 7.44456 16.9916 7.71669C17.2638 7.98881 17.4166 8.35789 17.4166 8.74273C17.4166 9.12757 17.2638 9.49665 16.9916 9.76877C16.7195 10.0409 16.3504 10.1938 15.9656 10.1938L4.28435 10.1938C3.89951 10.1938 3.53044 10.0409 3.25831 9.76877C2.98619 9.49665 2.83331 9.12757 2.83331 8.74273ZM2.83331 17.5C2.83331 16.6979 3.48373 16.049 4.28435 16.049L30.5489 16.049C30.9338 16.049 31.3029 16.2019 31.575 16.474C31.8471 16.7461 32 17.1152 32 17.5C32 17.8849 31.8471 18.2539 31.575 18.5261C31.3029 18.7982 30.9338 18.9511 30.5489 18.9511L4.28435 18.9511C3.89951 18.9511 3.53044 18.7982 3.25831 18.5261C2.98619 18.2539 2.83331 17.8849 2.83331 17.5ZM4.28435 24.8063C3.89951 24.8063 3.53044 24.9591 3.25831 25.2313C2.98619 25.5034 2.83331 25.8725 2.83331 26.2573C2.83331 26.6421 2.98619 27.0112 3.25831 27.2834C3.53044 27.5555 3.89951 27.7084 4.28435 27.7084L21.7989 27.7084C22.1838 27.7084 22.5529 27.5555 22.825 27.2834C23.0971 27.0112 23.25 26.6421 23.25 26.2573C23.25 25.8725 23.0971 25.5034 22.825 25.2313C22.5529 24.9591 22.1838 24.8063 21.7989 24.8063L4.28435 24.8063Z" fill="white"/>
</svg>
