<svg width="30" height="21" viewBox="0 0 30 21" fill="none" xmlns="http://www.w3.org/2000/svg">
<path d="M29.1667 19.2573C29.1667 20.0594 28.5163 20.7083 27.7156 20.7083H16.0344C15.6496 20.7083 15.2805 20.5555 15.0084 20.2833C14.7362 20.0112 14.5834 19.6421 14.5834 19.2573C14.5834 18.8725 14.7362 18.5034 15.0084 18.2313C15.2805 17.9591 15.6496 17.8063 16.0344 17.8063H27.7156C28.1005 17.8063 28.4696 17.9591 28.7417 18.2313C29.0138 18.5034 29.1667 18.8725 29.1667 19.2573ZM29.1667 10.5C29.1667 11.3021 28.5163 11.951 27.7156 11.951L1.45106 11.951C1.06622 11.951 0.697146 11.7982 0.425023 11.526C0.1529 11.2539 2.19345e-05 10.8848 2.19345e-05 10.5C2.19345e-05 10.1152 0.1529 9.74608 0.425023 9.47396C0.697146 9.20184 1.06622 9.04896 1.45106 9.04896L27.7156 9.04896C28.1005 9.04896 28.4696 9.20184 28.7417 9.47396C29.0138 9.74608 29.1667 10.1152 29.1667 10.5ZM27.7156 3.19375C28.1005 3.19375 28.4696 3.04088 28.7417 2.76875C29.0138 2.49663 29.1667 2.12755 29.1667 1.74271C29.1667 1.35787 29.0138 0.988795 28.7417 0.716672C28.4696 0.444549 28.1005 0.29167 27.7156 0.29167L10.2011 0.29167C9.81622 0.29167 9.44714 0.444549 9.17502 0.716672C8.9029 0.988795 8.75002 1.35787 8.75002 1.74271C8.75002 2.12755 8.9029 2.49663 9.17502 2.76875C9.44714 3.04088 9.81622 3.19375 10.2011 3.19375L27.7156 3.19375Z" fill="white"/>
</svg>
